<svg width="8" height="8" viewBox="0 0 8 8" fill="none" xmlns="http://www.w3.org/2000/svg">
<path d="M3.80058 0.605712C3.81943 0.359394 4.18057 0.359394 4.19942 0.605711L4.31378 2.1C4.32819 2.28834 4.57161 2.35357 4.67826 2.19766L5.52444 0.960753C5.66393 0.75686 5.97668 0.937426 5.86984 1.16017L5.22174 2.51144C5.14005 2.68176 5.31824 2.85995 5.48856 2.77826L6.83983 2.13016C7.06257 2.02332 7.24314 2.33607 7.03925 2.47556L5.80234 3.32174C5.64643 3.42839 5.71166 3.67181 5.9 3.68622L7.39429 3.80058C7.64061 3.81943 7.64061 4.18057 7.39429 4.19942L5.9 4.31378C5.71166 4.32819 5.64643 4.57161 5.80234 4.67826L7.03925 5.52444C7.24314 5.66393 7.06258 5.97668 6.83983 5.86984L5.48856 5.22174C5.31824 5.14005 5.14005 5.31824 5.22174 5.48856L5.86984 6.83983C5.97668 7.06257 5.66393 7.24314 5.52444 7.03925L4.67826 5.80234C4.57161 5.64643 4.32819 5.71166 4.31378 5.9L4.19942 7.39429C4.18057 7.64061 3.81943 7.64061 3.80058 7.39429L3.68622 5.9C3.67181 5.71166 3.42839 5.64643 3.32174 5.80234L2.47556 7.03925C2.33607 7.24314 2.02332 7.06258 2.13016 6.83983L2.77826 5.48856C2.85995 5.31824 2.68176 5.14005 2.51144 5.22174L1.16017 5.86984C0.937426 5.97668 0.75686 5.66393 0.960752 5.52444L2.19766 4.67826C2.35357 4.57161 2.28834 4.32819 2.1 4.31378L0.605712 4.19942C0.359394 4.18057 0.359394 3.81943 0.605711 3.80058L2.1 3.68622C2.28834 3.67181 2.35357 3.42839 2.19766 3.32174L0.960753 2.47556C0.75686 2.33607 0.937426 2.02332 1.16017 2.13016L2.51144 2.77826C2.68176 2.85995 2.85995 2.68176 2.77826 2.51144L2.13016 1.16017C2.02332 0.937426 2.33607 0.75686 2.47556 0.960752L3.32174 2.19766C3.42839 2.35357 3.67181 2.28834 3.68622 2.1L3.80058 0.605712Z" fill="#BCBCBC" fill-opacity="0.6"/>
</svg>
