<svg width="36" height="30" viewBox="0 0 36 30" fill="none" xmlns="http://www.w3.org/2000/svg">
<path d="M34.5 1.51508C34.5 1.51508 31.473 3.30308 29.79 3.81008C28.8866 2.77135 27.686 2.03512 26.3506 1.70097C25.0151 1.36682 23.6092 1.45088 22.3231 1.94176C21.037 2.43265 19.9327 3.30669 19.1595 4.44566C18.3863 5.58463 17.9815 6.93359 18 8.31008V9.81008C15.364 9.87844 12.7519 9.2938 10.3965 8.10825C8.04112 6.9227 6.01548 5.17304 4.5 3.01508C4.5 3.01508 -1.5 16.5151 12 22.5151C8.91079 24.612 5.23074 25.6635 1.5 25.5151C15 33.0151 31.5 25.5151 31.5 8.26508C31.5 7.84808 31.458 7.43108 31.38 7.02008C32.91 5.51108 34.5 1.51508 34.5 1.51508Z" stroke="white" stroke-width="2" stroke-linecap="round" stroke-linejoin="round"/>
</svg>
